<svg xmlns="http://www.w3.org/2000/svg" viewBox="0 0 144.49 144.51"><title>Fichier 1</title><g id="Calque_2" data-name="Calque 2"><g id="Calque_1-2" data-name="Calque 1"><path d="M134.49,72.28c-.27,25.77-16.34,49.74-40.86,58.53A63.07,63.07,0,0,1,24.13,112C7.34,91.92,5.34,62.4,18.81,40.07S59.06,5.9,84.57,11.18c28.93,6,49.61,31.69,49.92,61.1.06,6.43,10.06,6.44,10,0A73.25,73.25,0,0,0,96.92,4.33C68.55-6.22,35.24,3,16.23,26.49s-21.71,57.09-6.05,83A73.11,73.11,0,0,0,85.9,143.27c33.86-6.33,58.24-36.9,58.59-71C144.55,65.84,134.55,65.83,134.49,72.28Z"/></g><g id="Calque_2-2" data-name="Calque 2"><path d="M112.71,46.71,68.64,90.78h7.07L31.64,46.71c-4.56-4.56-11.63,2.51-7.08,7.07L68.64,97.85a5.08,5.08,0,0,0,7.07,0l44.07-44.07c4.55-4.56-2.52-11.63-7.07-7.07Z"/></g></g></svg>